<svg width="1617" height="694" xmlns="http://www.w3.org/2000/svg" xmlns:xlink="http://www.w3.org/1999/xlink" overflow="hidden"><defs><clipPath id="clip0"><rect x="870" y="2550" width="1617" height="694"/></clipPath></defs><g clip-path="url(#clip0)" transform="translate(-870 -2550)"><text fill="#FFFFFF" font-family="Josefin Sans,Josefin Sans_MSFontService,sans-serif" font-weight="700" font-size="330" transform="matrix(1 0 0 1 1483.33 2947)">WAY</text><path d="M1110.02 2684.49C1068.65 2684.49 1040.68 2713.4 1040.68 2749.73 1040.68 2785.65 1068.04 2814.33 1108.66 2814.96L1110.02 2814.97C1143.31 2814.97 1170.39 2842.16 1170.39 2875.81 1170.39 2909.45 1143.31 2936.65 1110.02 2936.65 1076.72 2936.65 1049.65 2909.45 1049.65 2875.81 1049.65 2867.02 1051.48 2858.54 1054.98 2850.75L1055.7 2849.2C1060.52 2839.24 1056.31 2827.27 1046.29 2822.48 1036.28 2817.69 1024.25 2821.88 1019.44 2831.84 1012.86 2845.44 1009.4 2860.4 1009.4 2875.81 1009.4 2931.48 1054.4 2976.69 1110.02 2976.69 1165.63 2976.69 1210.63 2931.48 1210.63 2875.81 1210.63 2820.69 1166.52 2775.83 1111.68 2774.94L1110.02 2774.93C1091.23 2774.93 1080.92 2764.27 1080.92 2749.73 1080.92 2735.18 1091.23 2724.53 1110.02 2724.53 1121.13 2724.53 1130.14 2715.56 1130.14 2704.51 1130.14 2693.45 1121.13 2684.49 1110.02 2684.49ZM1108 2568C1122.49 2568 1136.98 2571.73 1149.96 2579.18L1304.04 2667.69C1330.01 2682.61 1346 2710.17 1346 2739.99L1346 2917.01C1346 2946.83 1330.01 2974.39 1304.04 2989.31L1149.96 3077.81C1123.99 3092.73 1092.01 3092.73 1066.04 3077.81L911.957 2989.31C885.994 2974.39 870 2946.83 870 2917.01L870 2739.99C870 2710.17 885.994 2682.61 911.957 2667.69L1066.04 2579.18C1079.02 2571.73 1093.51 2568 1108 2568Z" fill="#FFFFFF" fill-rule="evenodd"/></g></svg>