<svg width="1617" height="694" xmlns="http://www.w3.org/2000/svg" xmlns:xlink="http://www.w3.org/1999/xlink" overflow="hidden"><defs><clipPath id="clip0"><rect x="6023" y="2550" width="1617" height="694"/></clipPath></defs><g clip-path="url(#clip0)" transform="translate(-6023 -2550)"><text fill="#3A2A95" font-family="Josefin Sans,Josefin Sans_MSFontService,sans-serif" font-weight="700" font-size="330" transform="matrix(1 0 0 1 6635.78 2947)">W<tspan fill="#FFFFFF" font-size="330" x="337.448" y="0">A</tspan><tspan font-size="330" x="567.188" y="0">Y</tspan></text><path d="M6263.02 2684.49C6221.65 2684.49 6193.68 2713.4 6193.68 2749.73 6193.68 2785.65 6221.04 2814.33 6261.66 2814.96L6263.02 2814.97C6296.31 2814.97 6323.39 2842.16 6323.39 2875.81 6323.39 2909.45 6296.31 2936.65 6263.02 2936.65 6229.72 2936.65 6202.65 2909.45 6202.65 2875.81 6202.65 2867.02 6204.48 2858.54 6207.98 2850.75L6208.7 2849.2C6213.52 2839.24 6209.31 2827.27 6199.29 2822.48 6189.28 2817.69 6177.25 2821.88 6172.44 2831.84 6165.86 2845.44 6162.4 2860.4 6162.4 2875.81 6162.4 2931.48 6207.4 2976.69 6263.02 2976.69 6318.63 2976.69 6363.63 2931.48 6363.63 2875.81 6363.63 2820.69 6319.52 2775.83 6264.68 2774.94L6263.02 2774.93C6244.23 2774.93 6233.92 2764.27 6233.92 2749.73 6233.92 2735.18 6244.23 2724.53 6263.02 2724.53 6274.13 2724.53 6283.14 2715.56 6283.14 2704.51 6283.14 2693.45 6274.13 2684.49 6263.02 2684.49ZM6261 2568C6275.49 2568 6289.98 2571.73 6302.96 2579.18L6457.04 2667.69C6483.01 2682.61 6499 2710.17 6499 2739.99L6499 2917.01C6499 2946.83 6483.01 2974.39 6457.04 2989.31L6302.96 3077.81C6276.99 3092.73 6245.01 3092.73 6219.04 3077.81L6064.96 2989.31C6038.99 2974.39 6023 2946.83 6023 2917.01L6023 2739.99C6023 2710.17 6038.99 2682.61 6064.96 2667.69L6219.04 2579.18C6232.02 2571.73 6246.51 2568 6261 2568Z" fill="#3A2A95" fill-rule="evenodd"/></g></svg>