<svg width="475" height="521" xmlns="http://www.w3.org/2000/svg" xmlns:xlink="http://www.w3.org/1999/xlink" overflow="hidden"><defs><clipPath id="clip0"><rect x="3423" y="2568" width="475" height="521"/></clipPath></defs><g clip-path="url(#clip0)" transform="translate(-3423 -2568)"><path d="M3662.51 2684.49C3621.23 2684.49 3593.32 2713.4 3593.32 2749.73 3593.32 2785.65 3620.62 2814.33 3661.16 2814.96L3662.51 2814.97C3695.74 2814.97 3722.75 2842.16 3722.75 2875.81 3722.75 2909.45 3695.74 2936.65 3662.51 2936.65 3629.28 2936.65 3602.27 2909.45 3602.27 2875.81 3602.27 2867.02 3604.1 2858.54 3607.59 2850.75L3608.31 2849.2C3613.12 2839.24 3608.92 2827.27 3598.92 2822.48 3588.93 2817.69 3576.93 2821.88 3572.12 2831.84 3565.56 2845.44 3562.11 2860.4 3562.11 2875.81 3562.11 2931.48 3607.02 2976.69 3662.51 2976.69 3718.01 2976.69 3762.92 2931.48 3762.92 2875.81 3762.92 2820.69 3718.9 2775.83 3664.17 2774.94L3662.51 2774.93C3643.76 2774.93 3633.48 2764.27 3633.48 2749.73 3633.48 2735.18 3643.76 2724.53 3662.51 2724.53 3673.6 2724.53 3682.59 2715.56 3682.59 2704.51 3682.59 2693.45 3673.6 2684.49 3662.51 2684.49ZM3660.5 2568C3674.96 2568 3689.41 2571.73 3702.37 2579.18L3856.13 2667.69C3882.04 2682.61 3898 2710.17 3898 2739.99L3898 2917.01C3898 2946.83 3882.04 2974.39 3856.13 2989.31L3702.37 3077.81C3676.46 3092.73 3644.54 3092.73 3618.63 3077.81L3464.87 2989.31C3438.96 2974.39 3423 2946.83 3423 2917.01L3423 2739.99C3423 2710.17 3438.96 2682.61 3464.87 2667.69L3618.63 2579.18C3631.59 2571.73 3646.04 2568 3660.5 2568Z" fill="#FE4768" fill-rule="evenodd"/></g></svg>