 <svg width="41" height="41" xmlns="http://www.w3.org/2000/svg" xmlns:xlink="http://www.w3.org/1999/xlink">
                      <defs><rect id="a" x="0" y="0" width="41" height="41" rx="2"></rect></defs>
                      <g transform="matrix(-1 0 0 1 41 0)" fill="none" fill-rule="evenodd">
                        <path stroke="#1C5DE7" d="M13.5 20.5h13v1h-13zM13.15 18.813l13.481-6.575.439.898-13.482 6.576z"></path>
                        <rect stroke="#1C5DE7" x="27.5" y="17.5" width="6" height="6" rx="3"></rect>
                        <rect stroke="#1C5DE7" x="27.5" y="8.5" width="6" height="6" rx="3"></rect>
                        <path stroke="#1C5DE7" d="M26.85 28.813L13.37 22.238l-.439.898 13.482 6.576z"></path>
                        <rect stroke="#1C5DE7" transform="matrix(-1 0 0 1 61 0)" x="27.5" y="26.5" width="6" height="6" rx="3"></rect>
                        <path stroke="#1C5DE7" d="M13.52 12.687l13.482 6.575.439-.898-13.482-6.576z"></path>
                        <rect stroke="#1C5DE7" transform="matrix(1 0 0 -1 0 41)" x="6.871" y="17.5" width="6" height="6" rx="3"></rect>
                        <rect stroke="#1C5DE7" transform="matrix(1 0 0 -1 0 23)" x="6.871" y="8.5" width="6" height="6" rx="3"></rect>
                        <path stroke="#1C5DE7" d="M12.668 29.229l14.335-6.992.439.899-14.335 6.992z"></path>
                        <rect stroke="#1C5DE7" transform="matrix(1 0 0 -1 0 59)" x="6.871" y="26.5" width="6" height="6" rx="3"></rect>
                      </g>
                    </svg>