  <svg width="41" height="41" xmlns="http://www.w3.org/2000/svg" xmlns:xlink="http://www.w3.org/1999/xlink">
                      <defs><rect id="a" x="0" y="0" width="41" height="41" rx="2"></rect></defs>
                      <g transform="matrix(-1 0 0 1 41 0)" fill="none" fill-rule="evenodd">
                        <path stroke="#1C5DE7" d="M13.5 21.25h13v1h-13zM12.225 19.642l14.83-7.233.439.899-14.83 7.233z"></path>
                        <rect stroke="#1C5DE7" x="6.5" y="18.5" width="6" height="6" rx="3"></rect>
                        <rect stroke="#1C5DE7" x="27.5" y="18.5" width="6" height="6" rx="3"></rect>
                        <rect stroke="#1C5DE7" x="27.5" y="8.5" width="6" height="6" rx="3"></rect>
                        <path stroke="#1C5DE7" d="M27.275 30.142l-14.83-7.233-.439.899 14.83 7.233z"></path>
                        <rect stroke="#1C5DE7" transform="matrix(-1 0 0 1 61 0)" x="27.5" y="28.5" width="6" height="6" rx="3"></rect>
                      </g>
                    </svg>